<mxfile host="app.diagrams.net" modified="2021-03-19T05:20:58.526Z" agent="5.0 (Windows NT 10.0; Win64; x64) AppleWebKit/537.36 (KHTML, like Gecko) Chrome/89.0.4389.90 Safari/537.36 Edg/89.0.774.54" etag="f5YWTP5N6wAcpKtC-Uki" version="14.4.9" type="github">
  <diagram name="Page-1" id="ad52d381-51e7-2e0d-a935-2d0ddd2fd229">
    <mxGraphModel dx="1198" dy="1460" grid="1" gridSize="10" guides="1" tooltips="1" connect="1" arrows="1" fold="1" page="1" pageScale="1" pageWidth="1100" pageHeight="850" background="#ffffff" math="0" shadow="0">
      <root>
        <mxCell id="0" />
        <mxCell id="1" parent="0" />
        <mxCell id="DNAE0yD8q5P628mnkATJ-48" style="edgeStyle=orthogonalEdgeStyle;shape=link;rounded=1;sketch=0;orthogonalLoop=1;jettySize=auto;html=1;exitX=0.5;exitY=0;exitDx=0;exitDy=0;entryX=0.5;entryY=0;entryDx=0;entryDy=0;shadow=0;fontSize=30;" edge="1" parent="1" source="DNAE0yD8q5P628mnkATJ-2" target="DNAE0yD8q5P628mnkATJ-4">
          <mxGeometry relative="1" as="geometry" />
        </mxCell>
        <mxCell id="DNAE0yD8q5P628mnkATJ-51" style="edgeStyle=orthogonalEdgeStyle;shape=link;rounded=1;sketch=0;orthogonalLoop=1;jettySize=auto;html=1;exitX=0;exitY=0.5;exitDx=0;exitDy=0;entryX=0.5;entryY=1;entryDx=0;entryDy=0;shadow=0;fontSize=30;" edge="1" parent="1" source="DNAE0yD8q5P628mnkATJ-2" target="DNAE0yD8q5P628mnkATJ-8">
          <mxGeometry relative="1" as="geometry">
            <Array as="points">
              <mxPoint x="320" y="240" />
              <mxPoint x="320" y="820" />
              <mxPoint x="660" y="820" />
            </Array>
          </mxGeometry>
        </mxCell>
        <mxCell id="DNAE0yD8q5P628mnkATJ-52" style="edgeStyle=orthogonalEdgeStyle;shape=link;rounded=1;sketch=0;orthogonalLoop=1;jettySize=auto;html=1;exitX=0;exitY=1;exitDx=0;exitDy=0;entryX=0;entryY=0;entryDx=0;entryDy=0;shadow=0;fontSize=30;" edge="1" parent="1" source="DNAE0yD8q5P628mnkATJ-2" target="DNAE0yD8q5P628mnkATJ-11">
          <mxGeometry relative="1" as="geometry">
            <Array as="points">
              <mxPoint x="340" y="269" />
              <mxPoint x="340" y="692" />
            </Array>
          </mxGeometry>
        </mxCell>
        <mxCell id="DNAE0yD8q5P628mnkATJ-53" style="edgeStyle=orthogonalEdgeStyle;shape=link;rounded=1;sketch=0;orthogonalLoop=1;jettySize=auto;html=1;exitX=0;exitY=0;exitDx=0;exitDy=0;entryX=1;entryY=0;entryDx=0;entryDy=0;shadow=0;fontSize=30;" edge="1" parent="1" source="DNAE0yD8q5P628mnkATJ-2" target="DNAE0yD8q5P628mnkATJ-6">
          <mxGeometry relative="1" as="geometry">
            <Array as="points">
              <mxPoint x="378" y="150" />
              <mxPoint x="980" y="150" />
              <mxPoint x="980" y="452" />
            </Array>
          </mxGeometry>
        </mxCell>
        <mxCell id="DNAE0yD8q5P628mnkATJ-2" value="AC" style="ellipse;whiteSpace=wrap;html=1;fontSize=30;" vertex="1" parent="1">
          <mxGeometry x="360" y="200" width="120" height="80" as="geometry" />
        </mxCell>
        <mxCell id="DNAE0yD8q5P628mnkATJ-54" style="edgeStyle=orthogonalEdgeStyle;shape=link;rounded=1;sketch=0;orthogonalLoop=1;jettySize=auto;html=1;exitX=1;exitY=0.5;exitDx=0;exitDy=0;entryX=0;entryY=0.5;entryDx=0;entryDy=0;shadow=0;fontSize=30;" edge="1" parent="1" source="DNAE0yD8q5P628mnkATJ-3" target="DNAE0yD8q5P628mnkATJ-4">
          <mxGeometry relative="1" as="geometry" />
        </mxCell>
        <mxCell id="DNAE0yD8q5P628mnkATJ-55" style="shape=link;rounded=1;sketch=0;orthogonalLoop=1;jettySize=auto;html=1;exitX=1;exitY=1;exitDx=0;exitDy=0;entryX=0;entryY=0;entryDx=0;entryDy=0;shadow=0;fontSize=30;" edge="1" parent="1" source="DNAE0yD8q5P628mnkATJ-3" target="DNAE0yD8q5P628mnkATJ-7">
          <mxGeometry relative="1" as="geometry" />
        </mxCell>
        <mxCell id="DNAE0yD8q5P628mnkATJ-56" style="edgeStyle=none;shape=link;rounded=1;sketch=0;orthogonalLoop=1;jettySize=auto;html=1;exitX=0;exitY=1;exitDx=0;exitDy=0;entryX=1;entryY=0;entryDx=0;entryDy=0;shadow=0;fontSize=30;" edge="1" parent="1" source="DNAE0yD8q5P628mnkATJ-3" target="DNAE0yD8q5P628mnkATJ-11">
          <mxGeometry relative="1" as="geometry" />
        </mxCell>
        <mxCell id="DNAE0yD8q5P628mnkATJ-57" style="edgeStyle=none;shape=link;rounded=1;sketch=0;orthogonalLoop=1;jettySize=auto;html=1;exitX=0;exitY=0.5;exitDx=0;exitDy=0;entryX=1;entryY=0;entryDx=0;entryDy=0;shadow=0;fontSize=30;" edge="1" parent="1" source="DNAE0yD8q5P628mnkATJ-3" target="DNAE0yD8q5P628mnkATJ-12">
          <mxGeometry relative="1" as="geometry" />
        </mxCell>
        <mxCell id="DNAE0yD8q5P628mnkATJ-3" value="AD" style="ellipse;whiteSpace=wrap;html=1;fontSize=30;" vertex="1" parent="1">
          <mxGeometry x="600" y="200" width="120" height="80" as="geometry" />
        </mxCell>
        <mxCell id="DNAE0yD8q5P628mnkATJ-58" style="edgeStyle=none;shape=link;rounded=1;sketch=0;orthogonalLoop=1;jettySize=auto;html=1;exitX=0.5;exitY=1;exitDx=0;exitDy=0;entryX=1;entryY=0;entryDx=0;entryDy=0;shadow=0;fontSize=30;" edge="1" parent="1" source="DNAE0yD8q5P628mnkATJ-4" target="DNAE0yD8q5P628mnkATJ-8">
          <mxGeometry relative="1" as="geometry" />
        </mxCell>
        <mxCell id="DNAE0yD8q5P628mnkATJ-59" style="edgeStyle=none;shape=link;rounded=1;sketch=0;orthogonalLoop=1;jettySize=auto;html=1;exitX=0;exitY=1;exitDx=0;exitDy=0;entryX=1;entryY=0.5;entryDx=0;entryDy=0;shadow=0;fontSize=30;" edge="1" parent="1" source="DNAE0yD8q5P628mnkATJ-4" target="DNAE0yD8q5P628mnkATJ-11">
          <mxGeometry relative="1" as="geometry" />
        </mxCell>
        <mxCell id="DNAE0yD8q5P628mnkATJ-4" value="BA" style="ellipse;whiteSpace=wrap;html=1;fontSize=30;" vertex="1" parent="1">
          <mxGeometry x="840" y="200" width="120" height="80" as="geometry" />
        </mxCell>
        <mxCell id="DNAE0yD8q5P628mnkATJ-60" style="edgeStyle=none;shape=link;rounded=1;sketch=0;orthogonalLoop=1;jettySize=auto;html=1;exitX=0;exitY=0.5;exitDx=0;exitDy=0;entryX=1;entryY=0.5;entryDx=0;entryDy=0;shadow=0;fontSize=30;" edge="1" parent="1" source="DNAE0yD8q5P628mnkATJ-6" target="DNAE0yD8q5P628mnkATJ-12">
          <mxGeometry relative="1" as="geometry" />
        </mxCell>
        <mxCell id="DNAE0yD8q5P628mnkATJ-61" style="edgeStyle=none;shape=link;rounded=1;sketch=0;orthogonalLoop=1;jettySize=auto;html=1;exitX=0.5;exitY=1;exitDx=0;exitDy=0;entryX=1;entryY=0;entryDx=0;entryDy=0;shadow=0;fontSize=30;" edge="1" parent="1" source="DNAE0yD8q5P628mnkATJ-6" target="DNAE0yD8q5P628mnkATJ-7">
          <mxGeometry relative="1" as="geometry" />
        </mxCell>
        <mxCell id="DNAE0yD8q5P628mnkATJ-62" style="edgeStyle=orthogonalEdgeStyle;shape=link;rounded=1;sketch=0;orthogonalLoop=1;jettySize=auto;html=1;exitX=1;exitY=0.5;exitDx=0;exitDy=0;entryX=1;entryY=1;entryDx=0;entryDy=0;shadow=0;fontSize=30;" edge="1" parent="1" source="DNAE0yD8q5P628mnkATJ-6" target="DNAE0yD8q5P628mnkATJ-8">
          <mxGeometry relative="1" as="geometry">
            <Array as="points">
              <mxPoint x="980" y="480" />
              <mxPoint x="980" y="820" />
              <mxPoint x="702" y="820" />
            </Array>
          </mxGeometry>
        </mxCell>
        <mxCell id="DNAE0yD8q5P628mnkATJ-6" value="BD" style="ellipse;whiteSpace=wrap;html=1;fontSize=30;" vertex="1" parent="1">
          <mxGeometry x="840" y="440" width="120" height="80" as="geometry" />
        </mxCell>
        <mxCell id="DNAE0yD8q5P628mnkATJ-68" style="edgeStyle=orthogonalEdgeStyle;shape=link;rounded=1;sketch=0;orthogonalLoop=1;jettySize=auto;html=1;exitX=0.5;exitY=1;exitDx=0;exitDy=0;entryX=0.5;entryY=1;entryDx=0;entryDy=0;shadow=0;fontSize=30;" edge="1" parent="1" source="DNAE0yD8q5P628mnkATJ-7" target="DNAE0yD8q5P628mnkATJ-11">
          <mxGeometry relative="1" as="geometry" />
        </mxCell>
        <mxCell id="DNAE0yD8q5P628mnkATJ-7" value="CA" style="ellipse;whiteSpace=wrap;html=1;fontSize=30;" vertex="1" parent="1">
          <mxGeometry x="840" y="680" width="120" height="80" as="geometry" />
        </mxCell>
        <mxCell id="DNAE0yD8q5P628mnkATJ-8" value="CB" style="ellipse;whiteSpace=wrap;html=1;fontSize=30;" vertex="1" parent="1">
          <mxGeometry x="600" y="680" width="120" height="80" as="geometry" />
        </mxCell>
        <mxCell id="DNAE0yD8q5P628mnkATJ-9" value="CD" style="ellipse;whiteSpace=wrap;html=1;fontSize=30;" vertex="1" parent="1">
          <mxGeometry x="680" y="40" width="120" height="80" as="geometry" />
        </mxCell>
        <mxCell id="DNAE0yD8q5P628mnkATJ-10" value="DA" style="ellipse;whiteSpace=wrap;html=1;fontSize=30;" vertex="1" parent="1">
          <mxGeometry x="840" y="40" width="120" height="80" as="geometry" />
        </mxCell>
        <mxCell id="DNAE0yD8q5P628mnkATJ-11" value="DB" style="ellipse;whiteSpace=wrap;html=1;fontSize=30;" vertex="1" parent="1">
          <mxGeometry x="360" y="680" width="120" height="80" as="geometry" />
        </mxCell>
        <mxCell id="DNAE0yD8q5P628mnkATJ-63" style="shape=link;rounded=1;sketch=0;orthogonalLoop=1;jettySize=auto;html=1;exitX=1;exitY=1;exitDx=0;exitDy=0;entryX=0;entryY=0.5;entryDx=0;entryDy=0;shadow=0;fontSize=30;" edge="1" parent="1" source="DNAE0yD8q5P628mnkATJ-12" target="DNAE0yD8q5P628mnkATJ-7">
          <mxGeometry relative="1" as="geometry" />
        </mxCell>
        <mxCell id="DNAE0yD8q5P628mnkATJ-69" style="shape=link;rounded=1;sketch=0;orthogonalLoop=1;jettySize=auto;html=1;exitX=0.5;exitY=1;exitDx=0;exitDy=0;entryX=0.5;entryY=0;entryDx=0;entryDy=0;shadow=0;fontSize=30;" edge="1" parent="1" source="DNAE0yD8q5P628mnkATJ-12" target="DNAE0yD8q5P628mnkATJ-8">
          <mxGeometry relative="1" as="geometry" />
        </mxCell>
        <mxCell id="DNAE0yD8q5P628mnkATJ-12" value="DC" style="ellipse;whiteSpace=wrap;html=1;fontSize=30;" vertex="1" parent="1">
          <mxGeometry x="360" y="440" width="120" height="80" as="geometry" />
        </mxCell>
        <mxCell id="DNAE0yD8q5P628mnkATJ-34" value="AB" style="ellipse;whiteSpace=wrap;html=1;fontSize=30;" vertex="1" parent="1">
          <mxGeometry x="360" y="40" width="120" height="80" as="geometry" />
        </mxCell>
        <mxCell id="DNAE0yD8q5P628mnkATJ-35" value="BC" style="ellipse;whiteSpace=wrap;html=1;fontSize=30;" vertex="1" parent="1">
          <mxGeometry x="520" y="40" width="120" height="80" as="geometry" />
        </mxCell>
      </root>
    </mxGraphModel>
  </diagram>
</mxfile>
